<svg xmlns="http://www.w3.org/2000/svg" viewBox="0 0 64 64">
  <defs>
    <linearGradient id="shield" x1="18" y1="8" x2="46" y2="58" gradientUnits="userSpaceOnUse">
      <stop stop-color="#0F766E"/>
      <stop offset=".55" stop-color="#075E5A"/>
      <stop offset="1" stop-color="#073B3A"/>
    </linearGradient>
    <linearGradient id="iris" x1="27" y1="25" x2="38" y2="38" gradientUnits="userSpaceOnUse">
      <stop stop-color="#5EEAD4"/>
      <stop offset="1" stop-color="#0A84FF"/>
    </linearGradient>
  </defs>

  <rect width="64" height="64" rx="14" fill="#101114"/>

  <path
    d="M32 6 52 14v15.5C52 44.5 42.8 55.5 32 59 21.2 55.5 12 44.5 12 29.5V14L32 6Z"
    fill="url(#shield)"
    stroke="#5EEAD4"
    stroke-width="4"
    stroke-linejoin="round"
  />

  <path
    d="M17.5 32c4.4-6.2 9.3-9 14.5-9s10.1 2.8 14.5 9c-4.4 6.2-9.3 9-14.5 9s-10.1-2.8-14.5-9Z"
    fill="#F5F7FB"
  />

  <circle cx="32" cy="32" r="7.5" fill="url(#iris)"/>
  <circle cx="32" cy="32" r="3" fill="#101114"/>
  <circle cx="35" cy="29" r="2" fill="#F5F7FB"/>
</svg>
